<svg xmlns="http://www.w3.org/2000/svg" width="120" height="40"><rect width="120" height="40" fill="#f0f0f0"/><line x1="22.622730789711973" y1="36.29199689234739" x2="119.00545332045824" y2="13.706337252836782" stroke="rgb(72, 52, 188)" stroke-width="1"/><line x1="60.53180975539302" y1="38.5448290284462" x2="105.60693152865075" y2="14.852892326480136" stroke="rgb(24, 24, 190)" stroke-width="1"/><line x1="117.12348564513485" y1="9.306241094567849" x2="112.65398305044104" y2="28.954293477987456" stroke="rgb(84, 38, 188)" stroke-width="1"/><line x1="0.8521378460701712" y1="8.734616186911595" x2="52.88296618875583" y2="27.519693208709384" stroke="rgb(193, 106, 99)" stroke-width="1"/><line x1="95.5011926683016" y1="19.971689182096224" x2="76.07963685645294" y2="30.163412626711583" stroke="rgb(177, 64, 157)" stroke-width="1"/><circle cx="78.63198621031583" cy="19.547562956274646" r="1" fill="rgb(108, 149, 189)"/><circle cx="48.37460756817794" cy="36.93239915859506" r="1" fill="rgb(165, 109, 8)"/><circle cx="116.04767479090721" cy="17.566817062811857" r="1" fill="rgb(108, 117, 39)"/><circle cx="64.10080695733117" cy="3.0295642122916355" r="1" fill="rgb(128, 150, 62)"/><circle cx="62.13800011024873" cy="27.773611443624073" r="1" fill="rgb(144, 23, 69)"/><circle cx="35.08252222157951" cy="17.822205452797828" r="1" fill="rgb(67, 44, 143)"/><circle cx="83.46966074982332" cy="10.209843125333675" r="1" fill="rgb(66, 36, 172)"/><circle cx="45.05732885907078" cy="17.54947090432544" r="1" fill="rgb(23, 53, 54)"/><circle cx="29.356030171450822" cy="17.21337358201704" r="1" fill="rgb(166, 9, 5)"/><circle cx="62.56736128160176" cy="23.339128916168566" r="1" fill="rgb(112, 96, 133)"/><circle cx="55.06764859166739" cy="27.607929381083565" r="1" fill="rgb(84, 173, 164)"/><circle cx="102.26104021230941" cy="19.786755857950816" r="1" fill="rgb(159, 172, 88)"/><circle cx="84.89426276222575" cy="2.673482099593043" r="1" fill="rgb(104, 17, 144)"/><circle cx="73.71141237120297" cy="22.76433329376955" r="1" fill="rgb(180, 197, 30)"/><circle cx="5.941140800498452" cy="27.30939160971367" r="1" fill="rgb(123, 186, 19)"/><circle cx="109.75745367896137" cy="19.864905105069496" r="1" fill="rgb(76, 43, 142)"/><circle cx="45.07637332309443" cy="28.12907879399903" r="1" fill="rgb(134, 59, 140)"/><circle cx="77.62535138995882" cy="31.899895027678813" r="1" fill="rgb(117, 62, 1)"/><circle cx="61.61119656344408" cy="12.94831664972965" r="1" fill="rgb(159, 128, 64)"/><circle cx="31.41538681404554" cy="29.43707312228719" r="1" fill="rgb(125, 34, 109)"/><circle cx="88.61114665141065" cy="17.204710704011738" r="1" fill="rgb(191, 164, 37)"/><circle cx="61.119039049562495" cy="35.54591325674509" r="1" fill="rgb(70, 98, 189)"/><circle cx="73.2914267880889" cy="36.51294006634767" r="1" fill="rgb(86, 15, 47)"/><circle cx="95.72702255018282" cy="22.92383853735542" r="1" fill="rgb(2, 94, 117)"/><circle cx="112.57387339421649" cy="39.79412362301095" r="1" fill="rgb(76, 116, 43)"/><circle cx="18.60980335436941" cy="23.326647483423343" r="1" fill="rgb(11, 186, 6)"/><circle cx="95.49110665619375" cy="13.136305904046504" r="1" fill="rgb(32, 33, 7)"/><circle cx="102.31286966287313" cy="13.282182346775109" r="1" fill="rgb(139, 24, 42)"/><circle cx="82.24622050817453" cy="11.654533507550386" r="1" fill="rgb(89, 195, 10)"/><circle cx="78.90628857709368" cy="25.974516916589828" r="1" fill="rgb(72, 182, 43)"/><text x="24" y="28" font-size="24" font-family="Arial" font-weight="bold" fill="rgb(56, 23, 29)" transform="rotate(-8.723695660940699, 24, 28)">w</text><text x="48" y="28" font-size="24" font-family="Arial" font-weight="bold" fill="rgb(42, 13, 41)" transform="rotate(11.288068031589944, 48, 28)">u</text><text x="72" y="28" font-size="24" font-family="Arial" font-weight="bold" fill="rgb(6, 70, 58)" transform="rotate(-1.8684581938702127, 72, 28)">C</text><text x="96" y="28" font-size="24" font-family="Arial" font-weight="bold" fill="rgb(80, 82, 64)" transform="rotate(9.408058921047683, 96, 28)">t</text></svg>
