<?xml version="1.0" standalone="no"?><!DOCTYPE svg PUBLIC "-//W3C//DTD SVG 1.1//EN" "http://www.w3.org/Graphics/SVG/1.1/DTD/svg11.dtd"><svg t="1769763947311" class="icon" viewBox="0 0 1024 1024" version="1.1" xmlns="http://www.w3.org/2000/svg" p-id="5185" xmlns:xlink="http://www.w3.org/1999/xlink" width="200" height="200"><path d="M484.224 177.664c35.84 0 70.016 6.4 101.44 18.176l-41.984 75.2a206.592 206.592 0 0 0-59.52-8.704c-50.368 0-98.24 18.048-134.784 51.008-35.584 32-57.152 74.88-60.608 121.024a72.32 72.32 0 0 1-53.056 64.256c-18.816 5.12-36.48 12.8-52.48 23.04a170.048 170.048 0 0 0-40.32 35.008c-22.272 26.688-34.112 58.24-34.112 91.264 0 38.912 16.832 76.352 47.168 105.216 28.672 27.392 66.368 44.8 107.52 50.112l13.888 1.28h445.568l12.992-0.448a193.472 193.472 0 0 0 125.44-57.664 199.936 199.936 0 0 0 57.856-141.44c0-50.624-20.032-98.88-56.576-135.808a209.792 209.792 0 0 0-11.52-10.752l47.68-70.592c12.352 9.984 23.872 20.928 34.368 32.704a276.032 276.032 0 0 1 70.912 184.448 284.992 284.992 0 0 1-82.304 200.96 278.784 278.784 0 0 1-183.36 82.88l-15.36 0.384h-448a277.056 277.056 0 0 1-177.92-75.072C51.712 770.688 24.064 712.128 24.064 647.936c0-48.32 15.616-93.376 42.624-131.2a261.504 261.504 0 0 1 114.176-88.96 47.168 47.168 0 0 0 28.096-34.24 268.608 268.608 0 0 1 97.92-155.328 286.592 286.592 0 0 1 177.28-60.544z m245.12-68.864l173.952 100.416c6.016 3.456 8.64 10.048 5.952 14.72l-261.312 452.608a8.832 8.832 0 0 1-6.592 4.16l-137.088 19.52-52.16-128.768a8.832 8.832 0 0 1 0.256-7.808l261.376-452.672c2.688-4.672 9.664-5.632 15.68-2.176z m18.944 104.64L540.544 573.44l15.104 37.376 39.68-5.632L803.2 245.12l-54.912-31.68z" p-id="5186" fill="#51bf6f"></path></svg>